<?xml version="1.0" encoding="UTF-8" standalone="no"?>
<!-- Created with Inkscape (http://www.inkscape.org/) -->

<svg
   xmlns:dc="http://purl.org/dc/elements/1.1/"
   xmlns:cc="http://creativecommons.org/ns#"
   xmlns:rdf="http://www.w3.org/1999/02/22-rdf-syntax-ns#"
   xmlns:svg="http://www.w3.org/2000/svg"
   xmlns="http://www.w3.org/2000/svg"
   xmlns:sodipodi="http://sodipodi.sourceforge.net/DTD/sodipodi-0.dtd"
   xmlns:inkscape="http://www.inkscape.org/namespaces/inkscape"
   id="svg7384"
   version="1.1"
   inkscape:version="0.48.0 r9654"
   height="16"
   sodipodi:docname="user-bookmarks-symbolic.svg"
   width="16">
  <metadata
     id="metadata90">
    <rdf:RDF>
      <cc:Work
         rdf:about="">
        <dc:format>image/svg+xml</dc:format>
        <dc:type
           rdf:resource="http://purl.org/dc/dcmitype/StillImage" />
        <dc:title>Gnome Symbolic Icon Theme</dc:title>
      </cc:Work>
    </rdf:RDF>
  </metadata>
  <sodipodi:namedview
     inkscape:cy="8.5334717"
     inkscape:current-layer="layer13"
     inkscape:window-width="1502"
     pagecolor="#555753"
     showborder="false"
     showguides="true"
     inkscape:snap-nodes="false"
     objecttolerance="10"
     showgrid="false"
     inkscape:object-nodes="true"
     inkscape:pageshadow="2"
     inkscape:guide-bbox="true"
     inkscape:window-x="52"
     inkscape:snap-bbox="true"
     bordercolor="#666666"
     id="namedview88"
     inkscape:window-maximized="0"
     inkscape:snap-global="true"
     inkscape:window-y="25"
     gridtolerance="10"
     inkscape:zoom="45.254834"
     inkscape:window-height="957"
     borderopacity="1"
     guidetolerance="10"
     inkscape:cx="9.2503058"
     inkscape:bbox-paths="false"
     inkscape:snap-grids="true"
     inkscape:pageopacity="1"
     inkscape:snap-to-guides="true">
    <inkscape:grid
       visible="true"
       spacingx="1px"
       type="xygrid"
       spacingy="1px"
       id="grid4866"
       empspacing="2"
       enabled="true"
       snapvisiblegridlinesonly="true" />
  </sodipodi:namedview>
  <title
     id="title9167">Gnome Symbolic Icon Theme</title>
  <defs
     id="defs7386" />
  <g
     transform="translate(-522,-176)"
     inkscape:groupmode="layer"
     id="layer9"
     inkscape:label="status"
     style="display:inline" />
  <g
     transform="translate(-522,-176)"
     inkscape:groupmode="layer"
     id="layer10"
     inkscape:label="devices" />
  <g
     transform="translate(-522,-176)"
     inkscape:groupmode="layer"
     id="layer11"
     inkscape:label="apps" />
  <g
     transform="translate(-522,-176)"
     inkscape:groupmode="layer"
     id="layer12"
     inkscape:label="actions" />
  <g
     transform="translate(-522,-176)"
     inkscape:groupmode="layer"
     id="layer13"
     inkscape:label="places">
    <g
       transform="translate(294.0002,-820)"
       id="g11910"
       inkscape:label="folder-remote" />
    <path
       style="font-size:medium;font-style:normal;font-variant:normal;font-weight:normal;font-stretch:normal;text-indent:0;text-align:start;text-decoration:none;line-height:normal;letter-spacing:normal;word-spacing:normal;text-transform:none;direction:ltr;block-progression:tb;writing-mode:lr-tb;text-anchor:start;baseline-shift:baseline;color:#000000;fill:#babdb6;fill-opacity:1;stroke:none;stroke-width:0.95488404999999998;marker:none;visibility:visible;display:inline;overflow:visible;enable-background:accumulate;font-family:Sans;-inkscape-font-specification:Sans"
       d="m 530.00474,176.18698 c -0.27249,-0.001 -0.51142,0.15025 -0.68478,0.30025 -0.17335,0.15 -0.30149,0.32965 -0.42107,0.52715 -0.23917,0.395 -0.42432,0.86102 -0.61061,1.34691 -0.18629,0.4859 -0.37373,0.99085 -0.5449,1.3791 -0.17116,0.38825 -0.35613,0.63535 -0.38725,0.65777 -0.031,0.0223 -0.3617,0.13095 -0.78405,0.17017 -0.42235,0.0392 -0.95236,0.0551 -1.4721,0.0777 -0.51973,0.0226 -1.02097,0.0743 -1.47127,0.17588 -0.22516,0.0508 -0.45543,0.11764 -0.6526,0.23452 -0.19718,0.11689 -0.40104,0.30159 -0.48625,0.56042 -0.0852,0.25883 -0.0177,0.50818 0.0714,0.71941 0.0891,0.21123 0.214,0.4113 0.36488,0.58606 0.30176,0.34953 0.68383,0.67818 1.08838,1.0055 0.40455,0.32732 0.83666,0.62403 1.15301,0.90678 0.31635,0.28275 0.51709,0.5809 0.52878,0.61742 0.0116,0.0363 0.002,0.37243 -0.0916,0.78623 -0.0932,0.41379 -0.24189,0.90917 -0.381,1.41046 -0.1391,0.50128 -0.27245,1.01571 -0.31499,1.47536 -0.0213,0.22983 -0.0121,0.4306 0.0382,0.65424 0.0502,0.22363 0.14559,0.49048 0.36542,0.65151 0.21984,0.16102 0.49291,0.17709 0.72132,0.15763 0.22842,-0.0195 0.44031,-0.0796 0.65315,-0.16907 0.42567,-0.17899 0.86671,-0.44725 1.30302,-0.73086 0.43632,-0.2836 0.87035,-0.58226 1.23703,-0.79575 0.36668,-0.2135 0.71187,-0.30096 0.75023,-0.3008 0.0382,1.6e-4 0.35794,0.10475 0.72268,0.32126 0.36474,0.21652 0.78361,0.48812 1.21738,0.77534 0.43376,0.28721 0.85882,0.59228 1.28282,0.77478 0.21201,0.0913 0.42765,0.13685 0.65587,0.15818 0.22822,0.0213 0.49752,-0.0103 0.7186,-0.16962 0.22107,-0.15931 0.33545,-0.4018 0.38753,-0.62505 0.0521,-0.22325 0.0793,-0.42498 0.06,-0.65505 -0.0387,-0.46015 -0.17189,-0.9676 -0.30679,-1.47019 -0.13489,-0.50259 -0.28222,-1.02222 -0.37196,-1.43692 -0.0897,-0.4147 -0.084,-0.74843 -0.072,-0.78486 0.0119,-0.0362 0.20008,-0.31344 0.51871,-0.59342 0.31863,-0.27997 0.73057,-0.60206 1.13776,-0.92584 0.40719,-0.32378 0.79989,-0.64416 1.10449,-0.99102 0.1523,-0.17343 0.29725,-0.34915 0.38807,-0.5596 0.0908,-0.21045 0.14239,-0.49374 0.0592,-0.75323 -0.0832,-0.25948 -0.26655,-0.43399 -0.46279,-0.55252 -0.19623,-0.11852 -0.43189,-0.20365 -0.65668,-0.25635 -0.44958,-0.1054 -0.95433,-0.12435 -1.47401,-0.15137 -0.51967,-0.027 -1.05131,-0.0431 -1.47345,-0.0859 -0.42214,-0.0428 -0.72338,-0.16741 -0.75432,-0.19009 -0.0308,-0.0225 -0.26334,-0.29414 -0.43115,-0.68369 -0.16781,-0.38956 -0.32022,-0.88307 -0.50232,-1.37038 -0.1821,-0.48731 -0.36474,-0.97269 -0.6005,-1.36956 -0.11787,-0.19844 -0.25769,-0.36866 -0.42978,-0.52007 -0.16518,-0.1453 -0.39812,-0.27852 -0.65696,-0.28908 l -0.0327,2.7e-4 z m 0.008,1.01449 c -0.0225,-8e-5 -0.0186,-0.0129 0.033,0.0325 0.0515,0.0453 0.11362,0.14949 0.19881,0.2929 0.17038,0.28681 0.35708,0.73389 0.53368,1.20648 0.1766,0.47258 0.34536,0.96185 0.53532,1.40283 0.18996,0.44098 0.35665,0.83362 0.72922,1.10667 0.37257,0.27305 0.80145,0.30091 1.27928,0.34936 0.47783,0.0485 1.00221,0.0594 1.50619,0.0856 0.50397,0.0262 0.98536,0.0765 1.31037,0.15274 0.1625,0.0381 0.30217,0.0923 0.36107,0.1279 -8.6e-4,0.003 0.0139,0.001 2.7e-4,0.0327 -0.0272,0.063 -0.0836,0.20355 -0.19363,0.32888 -0.22012,0.25068 -0.61253,0.54531 -1.0074,0.85931 -0.39487,0.31399 -0.80953,0.6419 -1.17021,0.95884 -0.36069,0.31693 -0.66515,0.58259 -0.8097,1.02129 -0.14454,0.43871 -0.0577,0.87205 0.0439,1.34147 0.10157,0.46942 0.24114,0.94951 0.37196,1.43692 0.13082,0.4874 0.24473,0.97419 0.2727,1.30683 0.014,0.16632 0.0186,0.29297 0.003,0.35998 -0.0156,0.067 -0.0179,0.0458 2.8e-4,0.0327 0.0182,-0.0131 0.003,0.007 -0.0655,5.4e-4 -0.0684,-0.006 -0.17486,-0.0295 -0.32807,-0.0954 -0.30643,-0.1319 -0.73047,-0.39918 -1.15111,-0.6777 -0.42065,-0.27852 -0.83776,-0.59541 -1.25065,-0.84051 -0.41289,-0.24509 -0.78547,-0.4459 -1.24737,-0.4478 -0.4619,-0.002 -0.82471,0.22684 -1.23975,0.4685 -0.41505,0.24166 -0.84663,0.521 -1.26976,0.79603 -0.42312,0.27503 -0.83221,0.53466 -1.13994,0.66404 -0.15386,0.0647 -0.2906,0.0953 -0.35916,0.10117 -0.0686,0.006 -0.0508,-0.0129 -0.0327,2.8e-4 0.0181,0.0133 0.0148,0.0343 -2.7e-4,-0.0327 -0.0151,-0.067 -0.0184,-0.19389 -0.003,-0.35998 0.0308,-0.33219 0.11627,-0.79233 0.25118,-1.27846 0.13491,-0.48614 0.30766,-1.00777 0.41317,-1.47619 0.10551,-0.46841 0.19549,-0.86968 0.0546,-1.30956 -0.14093,-0.43988 -0.46876,-0.72033 -0.82685,-1.0404 -0.35809,-0.32006 -0.76123,-0.6548 -1.15356,-0.97222 -0.39233,-0.31743 -0.77097,-0.62274 -0.98911,-0.87542 -0.10908,-0.12634 -0.17207,-0.22949 -0.19881,-0.29289 -0.0267,-0.0634 -0.0263,-0.0864 -0.0333,-0.0652 -0.007,0.0213 0.006,0.0345 0.0655,-5.5e-4 0.0591,-0.035 0.16345,-0.0969 0.32617,-0.13362 0.32543,-0.0734 0.80417,-0.0871 1.30819,-0.10907 0.50403,-0.0219 1.02673,-0.0336 1.50483,-0.078 0.47809,-0.0444 0.89848,-0.10065 1.27329,-0.3706 0.3748,-0.26996 0.54995,-0.64673 0.74369,-1.0862 0.19375,-0.43947 0.36397,-0.94061 0.54462,-1.41182 0.18065,-0.47121 0.37363,-0.89719 0.54653,-1.18275 0.0865,-0.14277 0.17459,-0.25141 0.22662,-0.29643 0.052,-0.045 0.0548,-0.0329 0.0325,-0.033 z"
       id="path2993"
       inkscape:connector-curvature="0" />
  </g>
  <g
     transform="translate(-522,-176)"
     inkscape:groupmode="layer"
     id="layer14"
     inkscape:label="mimetypes" />
  <g
     transform="translate(-522,-176)"
     inkscape:groupmode="layer"
     id="layer15"
     inkscape:label="emblems"
     style="display:inline" />
  <g
     transform="translate(-522,-176)"
     inkscape:groupmode="layer"
     id="g4953"
     inkscape:label="categories"
     style="display:inline" />
</svg>
