<?xml version="1.0" encoding="UTF-8" standalone="no"?>
<!-- Created with Inkscape (http://www.inkscape.org/) -->

<svg
   xmlns:dc="http://purl.org/dc/elements/1.1/"
   xmlns:cc="http://creativecommons.org/ns#"
   xmlns:rdf="http://www.w3.org/1999/02/22-rdf-syntax-ns#"
   xmlns:svg="http://www.w3.org/2000/svg"
   xmlns="http://www.w3.org/2000/svg"
   xmlns:sodipodi="http://sodipodi.sourceforge.net/DTD/sodipodi-0.dtd"
   xmlns:inkscape="http://www.inkscape.org/namespaces/inkscape"
   width="16"
   height="16"
   id="svg2"
   version="1.1"
   inkscape:version="0.48.0 r9654"
   sodipodi:docname="yelp-page-problem-symbolic.svg">
  <defs
     id="defs4" />
  <sodipodi:namedview
     id="base"
     pagecolor="#ffffff"
     bordercolor="#666666"
     borderopacity="1.0"
     inkscape:pageopacity="0.0"
     inkscape:pageshadow="2"
     inkscape:zoom="45.4375"
     inkscape:cx="8.088033"
     inkscape:cy="6.1676956"
     inkscape:document-units="px"
     inkscape:current-layer="layer1"
     showgrid="true"
     inkscape:window-width="1242"
     inkscape:window-height="925"
     inkscape:window-x="8"
     inkscape:window-y="65"
     inkscape:window-maximized="0">
    <inkscape:grid
       type="xygrid"
       id="grid2985"
       empspacing="4"
       visible="true"
       enabled="true"
       snapvisiblegridlinesonly="true"
       dotted="false" />
  </sodipodi:namedview>
  <metadata
     id="metadata7">
    <rdf:RDF>
      <cc:Work
         rdf:about="">
        <dc:format>image/svg+xml</dc:format>
        <dc:type
           rdf:resource="http://purl.org/dc/dcmitype/StillImage" />
        <dc:title></dc:title>
      </cc:Work>
    </rdf:RDF>
  </metadata>
  <g
     inkscape:label="Layer 1"
     inkscape:groupmode="layer"
     id="layer1"
     transform="translate(0,-1036.3622)">
    <g
       transform="translate(-86,649.3622)"
       inkscape:label="text-x-generic"
       id="g11497-6-7">
      <path
         style="opacity:0.51464431;color:#bebebe;fill:none;stroke:none;stroke-width:3;marker:none;visibility:visible;display:inline;overflow:visible;enable-background:accumulate"
         d="m 48,398 16,0 0,16 -16,0 z"
         id="rect10727-3-4" />
      <path
         inkscape:connector-curvature="0"
         style="color:#bebebe;fill:#bebebe;fill-opacity:1;fill-rule:nonzero;stroke:none;stroke-width:1;marker:none;visibility:visible;display:inline;overflow:visible;enable-background:accumulate"
         d="m 41.90625,398.96875 c -0.510315,0.0397 -0.946437,0.51947 -0.9375,1.03125 l 0,13 c -0.0079,0.54208 0.489173,1.03914 1.03125,1.03125 l 10,0 c 0.542077,0.008 1.039137,-0.48917 1.03125,-1.03125 l 0,-10 c -0.0039,-0.26817 -0.119017,-0.53303 -0.3125,-0.71875 l -3,-3 C 49.533028,399.08777 49.268166,398.97261 49,398.96875 l -7,0 c -0.03123,-10e-4 -0.06252,-10e-4 -0.09375,0 z M 48.5,400 c 0.277,0 0.5,0.223 0.5,0.5 l 0,2.5 2.5,0 c 0.277,0 0.5,0.223 0.5,0.5 0,0.277 -0.223,0.5 -0.5,0.5 l -3,0 c -0.277,0 -0.5,-0.223 -0.5,-0.5 l 0,-3 c 0,-0.277 0.223,-0.5 0.5,-0.5 z"
         id="path4387"
         sodipodi:nodetypes="ccccccccccccccccsccccc" />
      <path
         style="color:#bebebe;fill:#bebebe;fill-opacity:1;fill-rule:nonzero;stroke:none;stroke-width:1;marker:none;visibility:visible;display:inline;overflow:visible;enable-background:accumulate"
         d="M -44.09375 11.96875 C -44.604065 12.00845 -45.040187 12.48822 -45.03125 13 L -45.03125 26 C -45.03915 26.54208 -44.542077 27.03914 -44 27.03125 L -34 27.03125 C -33.457923 27.03925 -32.960863 26.54208 -32.96875 26 L -32.96875 16 C -32.97265 15.73183 -33.087767 15.46697 -33.28125 15.28125 L -36.28125 12.28125 C -36.466972 12.08777 -36.731834 11.97261 -37 11.96875 L -44 11.96875 C -44.03123 11.96775 -44.06252 11.96775 -44.09375 11.96875 z M -42.5 15 L -36.5 15 L -36.5 16 L -40 16 C -39.723 16 -39.5 16.223 -39.5 16.5 L -39.5 19 L -37 19 C -36.723 19 -36.5 19.223 -36.5 19.5 C -36.5 19.777 -36.723 20 -37 20 L -40 20 C -40.277 20 -40.5 19.777 -40.5 19.5 L -40.5 16.5 C -40.5 16.223 -40.277 16 -40 16 L -42.5 16 L -42.5 15 z "
         transform="translate(86,387)"
         id="path3054" />
    </g>
    <path
       style="font-size:medium;font-style:normal;font-variant:normal;font-weight:normal;font-stretch:normal;text-indent:0;text-align:start;text-decoration:none;line-height:normal;letter-spacing:normal;word-spacing:normal;text-transform:none;direction:ltr;block-progression:tb;writing-mode:lr-tb;text-anchor:start;baseline-shift:baseline;color:#000000;fill:#888a85;fill-opacity:1;stroke:none;stroke-width:1;marker:none;visibility:visible;display:inline;overflow:visible;enable-background:accumulate;font-family:Sans;-inkscape-font-specification:Sans"
       d="m 25.000034,1070.3622 12,0 0,-13 -12,0 z m 1,-12 10,0 0,11 -10,0 z"
       id="rect2987"
       inkscape:connector-curvature="0"
       sodipodi:nodetypes="cccccccccc" />
    <path
       inkscape:connector-curvature="0"
       style="fill:#888a85;fill-opacity:1;stroke:none"
       d="m 27,1060.3622 0.999983,0 1.7e-5,0 1.7e-5,1 -1.7e-5,0 -0.999983,0 -1.7e-5,0 -1.7e-5,-1 z"
       id="path3774"
       sodipodi:nodetypes="ccccccccc" />
    <path
       sodipodi:nodetypes="ccccccccc"
       inkscape:connector-curvature="0"
       id="path2990"
       d="m 29,1063.3622 5.999983,0 1.7e-5,0 1.7e-5,0.9999 -1.7e-5,10e-5 -5.999983,0 -1.7e-5,0 -1.7e-5,-1 z"
       style="fill:#888a85;fill-opacity:1;stroke:none" />
    <path
       style="fill:#888a85;fill-opacity:1;stroke:none"
       d="m 29,1066.3622 5.999983,0 1.7e-5,0 1.7e-5,0.9999 -1.7e-5,10e-5 -5.999983,0 -1.7e-5,0 -1.7e-5,-1 z"
       id="path2992"
       inkscape:connector-curvature="0"
       sodipodi:nodetypes="ccccccccc" />
    <path
       sodipodi:nodetypes="ccccccccc"
       id="path2994"
       d="m 27.000017,1063.3622 0.999983,0 1.7e-5,0 1.7e-5,1 -1.7e-5,0 -0.999983,0 -1.7e-5,0 -1.7e-5,-1 z"
       style="fill:#888a85;fill-opacity:1;stroke:none"
       inkscape:connector-curvature="0" />
    <path
       inkscape:connector-curvature="0"
       style="fill:#888a85;fill-opacity:1;stroke:none"
       d="m 27.000017,1066.3622 0.999983,0 1.7e-5,0 1.7e-5,1 -1.7e-5,0 -0.999983,0 -1.7e-5,0 -1.7e-5,-1 z"
       id="path2996"
       sodipodi:nodetypes="ccccccccc" />
    <path
       style="fill:#babdb6;fill-opacity:1;stroke:none"
       d="M 2 2 L 2 15 L 14 15 L 14 4 L 12 2 L 2 2 z M 7.03125 3.96875 C 9.0229614 3.96875 10.65625 5.6042306 10.65625 7.59375 C 10.65625 8.339786 10.423162 9.0470425 10.03125 9.625 L 10.03125 9.65625 L 12.4375 12.0625 A 0.66291263 0.66291263 0 1 1 11.5 13 L 9.09375 10.59375 L 9.0625 10.59375 C 8.4838653 10.985198 7.7781421 11.21875 7.03125 11.21875 C 5.0395317 11.21875 3.40625 9.5831794 3.40625 7.59375 C 3.40625 5.6042306 5.0395317 3.96875 7.03125 3.96875 z M 7.03125 5.3125 C 5.7507048 5.3125 4.75 6.3145677 4.75 7.59375 C 4.75 8.8727524 5.7507048 9.90625 7.03125 9.90625 C 8.3117887 9.90625 9.34375 8.8727524 9.34375 7.59375 C 9.34375 6.3145677 8.3117887 5.3125 7.03125 5.3125 z "
       transform="translate(0,1036.3622)"
       id="rect3096" />
    <g
       style="font-size:20px;font-style:normal;font-variant:normal;font-weight:normal;font-stretch:normal;line-height:125%;letter-spacing:0px;word-spacing:0px;fill:#000000;fill-opacity:1;stroke:none;font-family:PT Sans;-inkscape-font-specification:PT Sans"
       id="text3117" />
    <g
       style="font-size:20.22849464px;font-style:normal;font-variant:normal;font-weight:normal;font-stretch:normal;line-height:125%;letter-spacing:0px;word-spacing:0px;fill:#000000;fill-opacity:1;stroke:none;font-family:PT Sans;-inkscape-font-specification:PT Sans"
       id="text2995"
       transform="translate(8.665591,0.7419)" />
    <g
       id="g3122"
       transform="matrix(0.89950233,0,0,0.89950233,-2.4604125,104.55158)" />
  </g>
</svg>
